<svg xmlns="http://www.w3.org/2000/svg"  viewBox="0 0 48 48" width="50px" height="50px" fill-rule="evenodd" clip-rule="evenodd" baseProfile="basic"><path fill="#fe8e0d" fill-opacity=".098" fill-rule="evenodd" d="M7.053,31.44c-0.04-0.475-0.06-0.955-0.06-1.44c0-3.771,1.232-7.256,3.311-10.075l0.997-1.217l-0.088-0.311 c-0.144-0.777-0.22-1.579-0.22-2.397h7.005c1.104,0,2,0.896,2,2c0,1.859-1.369,6.205-2.679,9.232 c-1.243,2.808-4.055,4.768-7.32,4.768C8.959,31.999,7.965,31.801,7.053,31.44z M30.678,27.232 c-1.309-3.027-2.679-7.373-2.679-9.232c0-1.104,0.896-2,2-2h6.997c0,0.816-0.076,1.616-0.22,2.393l-0.088,0.312l0.999,1.219 c2.079,2.819,3.312,6.305,3.312,10.076c0,0.487-0.021,0.967-0.061,1.443c-0.911,0.36-1.903,0.557-2.94,0.557 C34.732,31.999,31.92,30.04,30.678,27.232z" clip-rule="evenodd"/><path fill="#fe8e0d" fill-opacity=".2" fill-rule="evenodd" d="M7.831,31.702C7.772,31.142,7.743,30.576,7.743,30c0-3.604,1.177-6.935,3.164-9.629l1.252-1.376l-0.208-0.736 c-0.136-0.732-0.208-1.487-0.208-2.259h6.256c1.104,0,2,0.896,2,2c0,1.859-1.369,6.205-2.679,9.232 c-1.243,2.808-4.055,4.768-7.32,4.768C9.248,31.999,8.52,31.897,7.831,31.702z M30.678,27.232 c-1.309-3.027-2.679-7.373-2.679-9.232c0-1.104,0.896-2,2-2h6.247c0,0.769-0.072,1.524-0.208,2.256l-0.207,0.735l1.252,1.379 c1.987,2.695,3.165,6.027,3.165,9.631c0,0.576-0.031,1.145-0.089,1.705c-0.688,0.192-1.413,0.295-2.161,0.295 C34.732,31.999,31.92,30.04,30.678,27.232z" clip-rule="evenodd"/><path fill="#fe8e0d" fill-opacity=".298" fill-rule="evenodd" d="M8.605,31.879C8.531,31.263,8.493,30.635,8.493,30c0-3.436,1.123-6.613,3.017-9.184l1.48-1.627l-0.303-1.068 c-0.128-0.688-0.195-1.397-0.195-2.121h5.505c1.104,0,2,0.896,2,2c0,1.859-1.369,6.205-2.679,9.232 c-1.243,2.808-4.055,4.768-7.32,4.768C9.524,31.999,9.059,31.958,8.605,31.879z M30.678,27.232 c-1.309-3.027-2.679-7.373-2.679-9.232c0-1.104,0.896-2,2-2h5.497c0,0.724-0.067,1.432-0.195,2.119l-0.303,1.068l1.48,1.628 c1.896,2.571,3.02,5.748,3.02,9.185c0,0.637-0.039,1.264-0.113,1.88c-0.452,0.08-0.915,0.12-1.388,0.12 C34.732,31.999,31.92,30.04,30.678,27.232z" clip-rule="evenodd"/><path fill="#fe8e0d" fill-opacity=".4" fill-rule="evenodd" d="M9.373,31.975C9.287,31.33,9.243,30.67,9.243,30c0-3.269,1.068-6.292,2.872-8.739l1.707-1.877l-0.396-1.401 c-0.12-0.643-0.183-1.305-0.183-1.983h4.756c1.104,0,2,0.896,2,2c0,1.859-1.369,6.205-2.679,9.232 c-1.243,2.808-4.055,4.768-7.32,4.768C9.789,31.999,9.58,31.992,9.373,31.975z M30.678,27.232 c-1.309-3.027-2.679-7.373-2.679-9.232c0-1.104,0.896-2,2-2h4.747c0,0.677-0.063,1.339-0.183,1.981l-0.395,1.4l1.708,1.879 c1.804,2.447,2.872,5.469,2.872,8.74c0,0.671-0.045,1.331-0.132,1.977c-0.204,0.016-0.411,0.023-0.619,0.023 C34.732,31.999,31.92,30.04,30.678,27.232z" clip-rule="evenodd"/><linearGradient id="zyKxVl__jq-xfWipxAZCxa" x1="-423.749" x2="-383.501" y1="715.204" y2="715.204" gradientTransform="rotate(90 155.225 583.975)" gradientUnits="userSpaceOnUse"><stop offset="0" stop-color="#fcdb1f"/><stop offset="1" stop-color="#fe9012"/></linearGradient><path fill="url(#zyKxVl__jq-xfWipxAZCxa)" d="M9.993,30c0-4.139,1.801-7.86,4.66-10.423	c-0.425-1.112-0.66-2.317-0.66-3.577c0-2.4,0.847-4.604,2.259-6.328l-2.961-2.964c-0.391-0.391-0.391-1.024,0-1.415	c0.391-0.391,1.024-0.391,1.415,0l2.963,2.964C19.392,6.846,21.595,6,23.995,6c2.399,0,4.603,0.847,6.327,2.257l2.964-2.964	c0.391-0.391,1.024-0.391,1.415,0c0.391,0.391,0.391,1.024,0,1.415l-2.964,2.964c1.412,1.724,2.26,3.928,2.26,6.328	c0,1.26-0.232,2.464-0.657,3.575c2.86,2.564,4.66,6.285,4.66,10.425c0,7.728-6.275,14-14.003,14S9.993,37.728,9.993,30z"/><path fill="#bf0000" fill-opacity=".365" fill-rule="evenodd" d="M10.316,33.001h27.359c-0.399,1.825-1.155,3.517-2.189,4.999h-22.98C11.471,36.518,10.715,34.826,10.316,33.001z M11.341,24.001	h25.307c0.729,1.533,1.189,3.22,1.315,4.999H10.028C10.153,27.221,10.612,25.534,11.341,24.001z" clip-rule="evenodd"/><path fill="#fe8e0d" fill-opacity=".043" fill-rule="evenodd" d="M9.993,30c0-4.139,1.801-7.86,4.66-10.423c-0.425-1.112-0.66-2.317-0.66-3.577c0-0.684,0.068-1.353,0.2-2h3.805 c2.208,0,4,1.792,4,4c0,2.332-1.552,7.04-2.847,10.035c-1.483,3.348-4.743,5.735-8.584,5.951C10.193,32.721,9.993,31.384,9.993,30z M28.844,28.034c-1.307-3.023-2.845-7.701-2.845-10.035c0-2.208,1.791-4,4-4h3.796c0.132,0.647,0.201,1.316,0.201,2 c0,1.26-0.232,2.464-0.657,3.575c2.86,2.564,4.66,6.285,4.66,10.425c0,1.384-0.201,2.721-0.576,3.984 C33.583,33.766,30.324,31.381,28.844,28.034z" clip-rule="evenodd"/><path fill="#fe8e0d" fill-opacity=".098" fill-rule="evenodd" d="M9.993,30c0-4.139,1.801-7.86,4.66-10.423c-0.425-1.112-0.66-2.317-0.66-3.577c0-0.544,0.043-1.079,0.127-1.6h3.879 c1.987,0,3.6,1.613,3.6,3.6c0,2.237-1.504,6.847-2.813,9.875c-1.435,3.239-4.603,5.54-8.328,5.715 C10.155,32.444,9.993,31.241,9.993,30z M29.211,27.874c-1.308-3.024-2.812-7.636-2.812-9.875c0-1.987,1.612-3.6,3.6-3.6h3.869 c0.084,0.521,0.128,1.056,0.128,1.6c0,1.26-0.232,2.464-0.657,3.575c2.86,2.564,4.66,6.285,4.66,10.425 c0,1.241-0.163,2.444-0.465,3.589C33.81,33.412,30.643,31.111,29.211,27.874z" clip-rule="evenodd"/><path fill="#fe8e0d" fill-opacity=".2" fill-rule="evenodd" d="M9.993,30c0-4.139,1.801-7.86,4.66-10.423c-0.425-1.112-0.66-2.317-0.66-3.577c0-0.405,0.024-0.805,0.071-1.2h3.935 c1.767,0,3.2,1.433,3.2,3.2c0,2.143-1.471,6.687-2.78,9.713c-1.384,3.128-4.456,5.341-8.06,5.48 C10.12,32.167,9.993,31.098,9.993,30z M29.578,27.713c-1.308-3.024-2.779-7.569-2.779-9.713c0-1.767,1.432-3.2,3.2-3.2h3.925 c0.047,0.395,0.072,0.795,0.072,1.2c0,1.26-0.232,2.464-0.657,3.575c2.86,2.564,4.66,6.285,4.66,10.425 c0,1.099-0.128,2.168-0.367,3.193C34.03,33.053,30.96,30.84,29.578,27.713z" clip-rule="evenodd"/><path fill="#fe8e0d" fill-opacity=".298" fill-rule="evenodd" d="M9.993,30c0-4.139,1.801-7.86,4.66-10.423c-0.425-1.112-0.66-2.317-0.66-3.577c0-0.269,0.011-0.536,0.031-0.8h3.975 c1.545,0,2.8,1.255,2.8,2.8c0,2.043-1.437,6.527-2.747,9.553c-1.332,3.012-4.303,5.137-7.78,5.243 C10.089,31.893,9.993,30.957,9.993,30z M29.944,27.553c-1.309-3.027-2.745-7.511-2.745-9.553c0-1.545,1.253-2.8,2.8-2.8h3.965 c0.02,0.264,0.032,0.531,0.032,0.8c0,1.26-0.232,2.464-0.657,3.575c2.86,2.564,4.66,6.285,4.66,10.425 c0,0.957-0.097,1.893-0.28,2.796C34.243,32.687,31.275,30.562,29.944,27.553z" clip-rule="evenodd"/><path fill="#fe8e0d" fill-opacity=".4" fill-rule="evenodd" d="M9.993,30c0-4.139,1.801-7.86,4.66-10.423c-0.425-1.112-0.66-2.317-0.66-3.577c0-0.133,0.001-0.267,0.007-0.4h3.999 c1.324,0,2.4,1.076,2.4,2.4c0,1.951-1.404,6.367-2.713,9.393c-1.28,2.892-4.143,4.928-7.488,5.005 C10.063,31.618,9.993,30.818,9.993,30z M30.311,27.393c-1.309-3.027-2.712-7.443-2.712-9.393c0-1.324,1.075-2.4,2.4-2.4h3.989 c0.005,0.133,0.008,0.267,0.008,0.4c0,1.26-0.232,2.464-0.657,3.575c2.86,2.564,4.66,6.285,4.66,10.425 c0,0.819-0.071,1.619-0.205,2.399C34.45,32.318,31.588,30.284,30.311,27.393z" clip-rule="evenodd"/><linearGradient id="zyKxVl__jq-xfWipxAZCxb" x1="-422.279" x2="-406.279" y1="702.326" y2="702.326" gradientTransform="rotate(90 144.023 582.302)" gradientUnits="userSpaceOnUse"><stop offset="0" stop-color="#ffd4d4"/><stop offset="1" stop-color="#ff7b7b"/></linearGradient><path fill="url(#zyKxVl__jq-xfWipxAZCxb)" fill-opacity=".302" d="M1.999,24c0-4.416,3.585-8,8.001-8	h7.999c1.104,0,2,0.896,2,2c0,1.859-1.369,6.205-2.679,9.232c-1.243,2.808-4.055,4.768-7.32,4.768	C5.584,31.999,1.999,28.416,1.999,24z M30.678,27.232c-1.309-3.027-2.679-7.373-2.679-9.232c0-1.104,0.896-2,2-2h7.999	c4.416,0,8.001,3.584,8.001,8s-3.585,8-8.001,8C34.732,31.999,31.92,30.04,30.678,27.232z"/><defs><filter id="zyKxVl__jq-xfWipxAZCxd" width="44" height="16" x="1.999" y="16" filterUnits="userSpaceOnUse"><feColorMatrix values="1 0 0 0 0 0 1 0 0 0 0 0 1 0 0 0 0 0 1 0"/></filter></defs><mask id="zyKxVl__jq-xfWipxAZCxe" width="44" height="16" x="1.999" y="16" maskUnits="userSpaceOnUse"><linearGradient id="zyKxVl__jq-xfWipxAZCxc" x1="-15717.549" x2="-15641.215" y1="839.223" y2="839.223" gradientTransform="matrix(-1 -.0026 .0197 -1 -15687.328 1071.179)" gradientUnits="userSpaceOnUse"><stop offset="0" stop-color="#4c4c4c"/><stop offset="1" stop-color="#666"/></linearGradient><rect width="1137.602" height="2337.598" x="-194.801" y="-894.8" fill="url(#zyKxVl__jq-xfWipxAZCxc)" fill-rule="evenodd" clip-rule="evenodd" filter="url(#zyKxVl__jq-xfWipxAZCxd)"/></mask><linearGradient id="zyKxVl__jq-xfWipxAZCxf" x1="-15216.543" x2="-15202.465" y1="16212.556" y2="16212.556" gradientTransform="rotate(-90 -15687.464 501.093)" gradientUnits="userSpaceOnUse"><stop offset="0" stop-color="ivory"/><stop offset="1" stop-color="#ff9a83"/></linearGradient><path fill="url(#zyKxVl__jq-xfWipxAZCxf)" d="M1.999,24	c0-4.416,3.585-8,8.001-8h7.999c1.104,0,2,0.896,2,2c0,1.859-1.369,6.205-2.679,9.232c-1.243,2.808-4.055,4.768-7.32,4.768	C5.584,31.999,1.999,28.416,1.999,24z M30.678,27.232c-1.309-3.027-2.679-7.373-2.679-9.232c0-1.104,0.896-2,2-2h7.999	c4.416,0,8.001,3.584,8.001,8s-3.585,8-8.001,8C34.732,31.999,31.92,30.04,30.678,27.232z M16.862,27.031	c1.309-3.027,2.637-7.287,2.637-9.032c0-0.827-0.673-1.5-1.5-1.5H10c-4.14,0-7.501,3.361-7.501,7.5c0,4.14,3.361,7.5,7.501,7.5	C13.06,31.499,15.696,29.663,16.862,27.031z M45.499,24c0-4.139-3.363-7.5-7.501-7.5h-7.999c-0.828,0-1.5,0.673-1.5,1.5	c0,1.745,1.327,6.005,2.636,9.032c1.165,2.632,3.801,4.468,6.863,4.468C42.136,31.499,45.499,28.139,45.499,24z" mask="url(#zyKxVl__jq-xfWipxAZCxe)"/></svg>